REM DIRINDEX 1\2,1\3,1\4,1\5
REM DIRNAME "folder01","folder02","folder03","folder04","folder05"
TITLE ""
FILE "1Q_t_0039-0048.mp3" MP3
  TRACK 01 AUDIO
    TITLE "3:cjc172_1025"
    INDEX 01 00:00:00
  TRACK 02 AUDIO
    TITLE "0:"
    INDEX 01 00:01:04
  TRACK 03 AUDIO
    TITLE "4:cjc172_1026"
    INDEX 01 00:01:22
  TRACK 04 AUDIO
    TITLE "0:"
    INDEX 01 00:03:44
  TRACK 05 AUDIO
    TITLE "5:cjc172_1027"
    INDEX 01 00:03:58
  TRACK 06 AUDIO
    TITLE "0:"
    INDEX 01 00:06:56
  TRACK 07 AUDIO
    TITLE "3:cjc172_1028"
    INDEX 01 00:07:34
  TRACK 08 AUDIO
    TITLE "0:"
    INDEX 01 00:08:41
  TRACK 09 AUDIO
    TITLE "4:cjc172_1029"
    INDEX 01 00:08:57
  TRACK 10 AUDIO
    TITLE "0:"
    INDEX 01 00:10:05
  TRACK 11 AUDIO
    TITLE "5:cjc172_1030"
    INDEX 01 00:10:22
  TRACK 12 AUDIO
    TITLE "0:"
    INDEX 01 00:15:27
  TRACK 13 AUDIO
    TITLE "3:cjc172_1031"
    INDEX 01 00:16:05
  TRACK 14 AUDIO
    TITLE "0:"
    INDEX 01 00:17:19
  TRACK 15 AUDIO
    TITLE "4:cjc172_1032"
    INDEX 01 00:17:34
  TRACK 16 AUDIO
    TITLE "0:"
    INDEX 01 00:18:51
  TRACK 17 AUDIO
    TITLE "5:cjc172_1033"
    INDEX 01 00:18:67
  TRACK 18 AUDIO
    TITLE "0:"
    INDEX 01 00:23:25
  TRACK 19 AUDIO
    TITLE "3:cjc172_1034"
    INDEX 01 00:24:05
  TRACK 20 AUDIO
    TITLE "0:"
    INDEX 01 00:25:16
  TRACK 21 AUDIO
    TITLE "4:cjc172_1035"
    INDEX 01 00:25:32
  TRACK 22 AUDIO
    TITLE "0:"
    INDEX 01 00:27:54
  TRACK 23 AUDIO
    TITLE "5:cjc172_1036"
    INDEX 01 00:27:72
  TRACK 24 AUDIO
    TITLE "0:"
    INDEX 01 00:32:44
  TRACK 25 AUDIO
    TITLE "3:cjc172_1037"
    INDEX 01 00:33:23
  TRACK 26 AUDIO
    TITLE "0:"
    INDEX 01 00:34:43
  TRACK 27 AUDIO
    TITLE "4:cjc172_1038"
    INDEX 01 00:34:62
  TRACK 28 AUDIO
    TITLE "0:"
    INDEX 01 00:36:75
  TRACK 29 AUDIO
    TITLE "5:cjc172_1039"
    INDEX 01 00:37:15
  TRACK 30 AUDIO
    TITLE "0:"
    INDEX 01 00:44:15
  TRACK 31 AUDIO
    TITLE "3:cjc172_1040"
    INDEX 01 00:44:70
  TRACK 32 AUDIO
    TITLE "0:"
    INDEX 01 00:46:06
  TRACK 33 AUDIO
    TITLE "4:cjc172_1041"
    INDEX 01 00:46:20
  TRACK 34 AUDIO
    TITLE "0:"
    INDEX 01 00:48:43
  TRACK 35 AUDIO
    TITLE "5:cjc172_1042"
    INDEX 01 00:48:56
  TRACK 36 AUDIO
    TITLE "0:"
    INDEX 01 00:54:04
  TRACK 37 AUDIO
    TITLE "3:cjc172_1043"
    INDEX 01 00:54:55
  TRACK 38 AUDIO
    TITLE "0:"
    INDEX 01 00:55:70
  TRACK 39 AUDIO
    TITLE "4:cjc172_1044"
    INDEX 01 00:56:11
  TRACK 40 AUDIO
    TITLE "0:"
    INDEX 01 00:58:72
  TRACK 41 AUDIO
    TITLE "5:cjc172_1045"
    INDEX 01 00:59:15
  TRACK 42 AUDIO
    TITLE "0:"
    INDEX 01 01:04:18
  TRACK 43 AUDIO
    TITLE "3:cjc172_1046"
    INDEX 01 01:04:71
  TRACK 44 AUDIO
    TITLE "0:"
    INDEX 01 01:06:05
  TRACK 45 AUDIO
    TITLE "4:cjc172_1047"
    INDEX 01 01:06:19
  TRACK 46 AUDIO
    TITLE "0:"
    INDEX 01 01:10:09
  TRACK 47 AUDIO
    TITLE "5:cjc172_1048"
    INDEX 01 01:10:27
  TRACK 48 AUDIO
    TITLE "0:"
    INDEX 01 01:14:42
  TRACK 49 AUDIO
    TITLE "3:cjc172_1049"
    INDEX 01 01:15:20
  TRACK 50 AUDIO
    TITLE "0:"
    INDEX 01 01:16:43
  TRACK 51 AUDIO
    TITLE "4:cjc172_1050"
    INDEX 01 01:16:60
  TRACK 52 AUDIO
    TITLE "0:"
    INDEX 01 01:19:29
  TRACK 53 AUDIO
    TITLE "5:cjc172_1051"
    INDEX 01 01:19:45
  TRACK 54 AUDIO
    TITLE "0:"
    INDEX 01 01:24:68
  TRACK 55 AUDIO
    TITLE "3:cjc172_1052"
    INDEX 01 01:25:46
  TRACK 56 AUDIO
    TITLE "0:"
    INDEX 01 01:27:11
  TRACK 57 AUDIO
    TITLE "4:cjc172_1053"
    INDEX 01 01:27:27
  TRACK 58 AUDIO
    TITLE "0:"
    INDEX 01 01:28:54
  TRACK 59 AUDIO
    TITLE "5:cjc172_1054"
    INDEX 01 01:28:70
  TRACK 60 AUDIO
    TITLE "0:"
    INDEX 01 01:34:06
